<svg xmlns="http://www.w3.org/2000/svg" viewBox="0 0 110 30"><title>buy_now_cta_1_1</title><g id="Layer_2" data-name="Layer 2"><g id="background_images"><rect width="110" height="30" rx="15" fill="#147dbe"/><path d="M27.21,9.43a20.68,20.68,0,0,1,3-.21,5.7,5.7,0,0,1,3,.57,2.2,2.2,0,0,1,1.2,2,2.28,2.28,0,0,1-1.66,2.14v0a2.52,2.52,0,0,1,2,2.48,2.7,2.7,0,0,1-1.05,2.16c-.74.58-2,.91-4,.91a16.91,16.91,0,0,1-2.47-.15Zm2.26,3.87h.75c1.22,0,1.85-.49,1.85-1.24s-.59-1.17-1.62-1.17a6,6,0,0,0-1,.06Zm0,4.49a7.35,7.35,0,0,0,.89,0c1,0,2-.41,2-1.47s-.92-1.41-2.05-1.41h-.79Z" fill="#fff"/><path d="M43.11,17.05c0,1,0,1.74.06,2.36h-2l-.11-1h0a2.63,2.63,0,0,1-2.3,1.2c-1.5,0-2.58-.93-2.58-3.19V12.07h2.28V16c0,1.06.35,1.71,1.16,1.71a1.22,1.22,0,0,0,1.14-.8,1.19,1.19,0,0,0,.09-.49V12.07h2.28Z" fill="#fff"/><path d="M46.65,12.07l1.09,3.62c.12.42.27,1,.36,1.36h.06c.09-.4.21-.94.32-1.38l.91-3.6h2.43L50.11,16.9c-1,2.93-1.75,4.08-2.58,4.82a4,4,0,0,1-2.19,1l-.49-1.92a3.6,3.6,0,0,0,1-.39,2.64,2.64,0,0,0,.94-.91.64.64,0,0,0,.12-.33.86.86,0,0,0-.09-.38l-2.7-6.72Z" fill="#fff"/><path d="M55.81,14.41c0-.91,0-1.68-.06-2.34h2l.11,1h0a2.64,2.64,0,0,1,2.27-1.18c1.5,0,2.62,1,2.62,3.16v4.34H60.49V15.34c0-.94-.33-1.59-1.15-1.59a1.25,1.25,0,0,0-1.17.86,1.64,1.64,0,0,0-.08.57v4.23H55.81Z" fill="#fff"/><path d="M71.85,15.66A3.68,3.68,0,0,1,68,19.57a3.59,3.59,0,0,1-3.8-3.78,3.67,3.67,0,0,1,3.93-3.9A3.57,3.57,0,0,1,71.85,15.66Zm-5.31.07c0,1.26.52,2.21,1.5,2.21s1.45-.89,1.45-2.22c0-1.08-.42-2.19-1.45-2.19S66.54,14.65,66.54,15.73Z" fill="#fff"/><path d="M74.7,12.07l.6,3c.13.75.29,1.56.41,2.4h0c.13-.84.36-1.67.52-2.39l.78-3h1.8L79.59,15c.21.84.41,1.65.54,2.49h0c.1-.83.26-1.67.43-2.51l.62-2.91h2.23l-2.25,7.34H79.06l-.68-2.57a23.12,23.12,0,0,1-.49-2.29h0a19,19,0,0,1-.46,2.28l-.73,2.58H74.52l-2.14-7.34Z" fill="#fff"/></g></g></svg>