<svg width="72" height="72" fill="none" xmlns="http://www.w3.org/2000/svg"><path fill-rule="evenodd" clip-rule="evenodd" d="M9.108 30.916L6.719 11.95c.182-.1.383-.207.6-.32 1.345-.704 3.363-1.656 5.992-2.614C18.57 7.102 26.264 5.171 35.92 5.171c9.654 0 17.349 1.93 22.607 3.845 2.63.958 4.647 1.91 5.992 2.613.218.114.418.222.6.321L62.73 30.916c-2.195 1.236-5.593 3.84-5.593 9.157 0 3.163 1.294 5.552 2.541 7.108.41.512.82.94 1.189 1.287l-1.963 10.944-22.985 7.163-22.985-7.163-1.963-10.944c.368-.347.778-.776 1.188-1.287 1.247-1.556 2.54-3.945 2.54-7.108 0-5.318-3.397-7.92-5.591-9.157zM69.427 8.462l-.007-.005-.014-.008-.04-.026a21.024 21.024 0 00-.606-.375 35.974 35.974 0 00-1.763-.982c-1.53-.8-3.763-1.85-6.636-2.897C54.615 2.076 46.297 0 35.919 0S17.223 2.076 11.476 4.169C8.603 5.215 6.371 6.266 4.84 7.066c-.765.4-1.355.738-1.763.981a21.481 21.481 0 00-.606.376l-.04.026-.013.008-.005.004-.002.001-.002.001-1.329.888 3.139 24.923 1.272.618c1.717.834 3.937 1.995 3.937 5.18 0 1.707-.683 3.002-1.413 3.913-.366.457-.732.8-.998 1.023a5.32 5.32 0 01-.297.232l-.054.038-1.455.92 3.084 17.194L35.92 72l27.623-8.608 3.084-17.194-1.454-.92a4.994 4.994 0 01-.35-.27 7.303 7.303 0 01-1-1.023c-.73-.91-1.413-2.206-1.413-3.912 0-3.186 2.22-4.347 3.938-5.181l1.271-.618 3.14-24.923-1.33-.888h-.001zm-43.204 8.802l-2.498-4.49h15.513c7.625 0 9.729 5.901 8.02 12.828-.952 3.856-3.725 7.954-5.128 9.493 2.192 5.944 6.705 18.114 7.231 19.243.526 1.129 1.71 2.138 2.235 2.565H40.421C41.605 55.363 42 53.953 42 53.44c0-.41-3.418-9.408-5.127-13.855l-4.076 3.207v10.776l2.235 3.335H24.12l2.104-3.335V17.264zm6.705 18.216V17.71c.372 0 .747-.008 1.12-.017h.001c1.742-.042 3.47-.084 4.795.787 1.61 1.059 2.366 3.645 1.84 6.468-.966 5.187-4.82 8.218-7.172 10.07-.207.162-.403.316-.584.462z" fill="#EFBA52"/></svg>