<svg width="164" height="35" xmlns="http://www.w3.org/2000/svg"><defs><path id="a" d="M.11.153h4.15v6.212H.11z"/></defs><g fill="none"><g transform="translate(135 7)"><rect width="29" height="12" fill="#565697" rx="6"/><path fill="#FFF" d="M9.546 7.215c0 .244-.038.473-.113.688a1.672 1.672 0 01-.331.566 1.57 1.57 0 01-.54.387 1.824 1.824 0 01-.75.144H5V3h2.7c.301 0 .561.044.779.13.218.088.398.207.54.358.142.15.248.325.318.522.07.198.104.404.104.618a1.5 1.5 0 01-.178.68 1.222 1.222 0 01-.562.54c.145.07.27.158.374.265a1.656 1.656 0 01.47 1.102zM8.213 4.742c0-.221-.065-.39-.196-.505-.13-.117-.335-.175-.614-.175h-1.21v1.315h1.228c.25 0 .444-.058.583-.174a.57.57 0 00.21-.461zm.07 2.438a.751.751 0 00-.218-.562c-.145-.142-.345-.213-.6-.213H6.192v1.533h1.28c.267 0 .469-.069.605-.205.137-.136.205-.32.205-.553zM10.443 3h4.136v1.071h-2.943v1.376h2.516v1.071h-2.516v1.42h2.943V9h-4.136V3zm7.844 1.08V9h-1.193V4.08H15.5V3h4.372v1.08h-1.585zm5.466 3.683h-2.09L21.271 9H20l2.107-6h1.22l2.09 6h-1.298l-.366-1.237zM22 6.851h1.446l-.236-.766-.47-1.585h-.035l-.461 1.559L22 6.85z"/></g><path fill="#FFFFFE" d="M73 29.667a54.6 54.6 0 01-.428 1.265l-.25.724-.19.549h1.763a20.899 20.899 0 00-.184-.55l-.253-.723a74.05 74.05 0 01-.438-1.265H73zm1.43 4.058a26.87 26.87 0 01-.19-.543 23.58 23.58 0 00-.19-.542h-2.08l-.381 1.085h-.522c.282-.787.563-1.566.843-2.338a530 530 0 00.842-2.337h.522l1.693 4.675h-.536zm2.561-3.4c.319 0 .567.099.744.299.177.2.265.494.265.88v2.221h-.426v-2.147c0-.299-.06-.512-.18-.637a.624.624 0 00-.49-.18 1.27 1.27 0 00-.503.125 3.67 3.67 0 00-.575.323v2.516H75.4v-3.367h.368l.058.424c.292-.188.527-.31.704-.369a1.48 1.48 0 01.461-.088m3.619 1.828h-.951c-.079 0-.163.006-.255.017a.685.685 0 00-.254.08.543.543 0 00-.195.183.574.574 0 00-.079.32c0 .198.063.343.19.435.126.093.28.138.462.138.087 0 .178-.013.274-.04a2.416 2.416 0 00.563-.236c.09-.05.17-.096.245-.141v-.756zm-.013 1.173c-.283.172-.513.281-.691.328a1.8 1.8 0 01-.456.071c-.304 0-.55-.084-.736-.253-.187-.168-.28-.408-.28-.718 0-.18.037-.332.114-.456a.979.979 0 01.283-.3c.113-.077.234-.132.365-.166.13-.034.252-.05.365-.05h1.049v-.295c0-.26-.069-.45-.206-.57-.136-.12-.34-.182-.609-.182-.134 0-.282.02-.443.058a1.27 1.27 0 00-.488.253l-.216-.338a1.71 1.71 0 01.59-.305c.198-.052.394-.078.59-.078.43 0 .738.098.925.296.187.198.28.481.28.85v2.22h-.365l-.058-.358-.013-.007z"/><g transform="translate(82.333 28.625)"><mask id="b" fill="#fff"><use href="#a"/></mask><path fill="#FFFFFE" d="M.55 4.175c0 .194.04.319.118.373.078.055.21.077.394.067l.014.415a1.11 1.11 0 01-.142.016C.89 5.05.844 5.05.8 5.05c-.27 0-.452-.068-.546-.207-.095-.138-.142-.339-.142-.6V.152H.55v4.022m1.524 2.201l.493-1.4-.236-.217-.965-3.09h.472a24.277 24.277 0 01.229.757c.045.157.09.305.132.449.043.143.075.246.098.31l.439 1.424h.013l.506-1.425.111-.31c.052-.143.105-.291.159-.448l.155-.448.108-.308h.473c-.05.13-.119.32-.206.565-.088.247-.188.524-.3.83a551.336 551.336 0 00-.699 1.915l-.3.828c-.09.248-.158.437-.203.568h-.479" mask="url(#b)"/></g><path fill="#FFFFFE" d="M88.833 33.63a2.644 2.644 0 01-.663.095c-.358 0-.612-.08-.762-.237-.15-.16-.226-.425-.226-.797v-1.993h-.515v-.422h.522l.12-.801h.332v.801h1.002v.422H87.64v1.866c0 .286.048.481.144.584.097.104.246.155.449.155a3.22 3.22 0 00.53-.055l.07.382m.974.095h.774v-3.343h-.774v3.343zm.893-4.392c0 .077-.05.143-.149.201a.705.705 0 01-.351.085.709.709 0 01-.352-.085c-.1-.058-.148-.124-.148-.2 0-.081.049-.15.148-.203a.729.729 0 01.352-.081c.135 0 .252.027.351.08.1.055.149.123.149.203zm1.726.992c.203 0 .41.025.62.073.21.048.395.146.554.291l-.297.337a1.202 1.202 0 00-.45-.236 1.706 1.706 0 00-.397-.054c-.114 0-.23.015-.345.048a.919.919 0 00-.316.15.759.759 0 00-.227.278.923.923 0 00-.085.416v.796a.9.9 0 00.085.411.789.789 0 00.223.274.97.97 0 00.312.155c.116.034.234.05.353.05.114 0 .253-.02.416-.06a1.02 1.02 0 00.416-.203l.304.317a1.5 1.5 0 01-.545.277c-.2.053-.403.08-.606.08a1.94 1.94 0 01-.594-.087c-.178-.06-.33-.14-.455-.246a1.098 1.098 0 01-.392-.859v-.99c0-.183.037-.351.11-.501a1.12 1.12 0 01.304-.383c.13-.105.282-.189.455-.246.173-.058.36-.088.557-.088m2.525 3.029a1.4 1.4 0 00.287-.03.773.773 0 00.26-.102.56.56 0 00.187-.184.523.523 0 00.071-.284.398.398 0 00-.143-.329 1.008 1.008 0 00-.402-.175 6.327 6.327 0 00-.509-.105 2.28 2.28 0 01-.494-.134.96.96 0 01-.373-.256c-.098-.11-.146-.264-.146-.46a.874.874 0 01.334-.701c.105-.086.231-.151.379-.2a1.59 1.59 0 01.481-.069c.245 0 .462.023.648.07.187.048.364.129.532.245l-.112.166-.113.164a1.753 1.753 0 00-.457-.194 1.875 1.875 0 00-.491-.061c-.232 0-.419.054-.56.161a.502.502 0 00-.211.418c0 .08.02.15.06.205a.483.483 0 00.167.141c.07.038.154.07.252.095.098.025.203.048.316.07.141.027.287.057.44.088.151.032.29.08.418.149.126.067.23.157.31.272a.79.79 0 01.118.454.838.838 0 01-.35.694 1.217 1.217 0 01-.404.194 1.928 1.928 0 01-.529.069c-.227 0-.45-.027-.669-.078a1.8 1.8 0 01-.648-.313l.239-.33c.168.13.342.221.522.272.18.052.376.078.59.078m4.243-2.709v3.08h-.427v-3.08h-.4v-.434h.4v-.704c0-.147.021-.277.063-.388a.776.776 0 01.17-.277.672.672 0 01.256-.164.916.916 0 01.312-.053h.532v.412h-.473a.49.49 0 00-.216.042.348.348 0 00-.135.118.456.456 0 00-.066.17c-.01.065-.016.136-.016.211v.633h.906v.434h-.906m3.516.979a.96.96 0 00-.079-.41.784.784 0 00-.487-.431 1.027 1.027 0 00-.618 0 .79.79 0 00-.49.431.973.973 0 00-.079.41v.794c0 .162.024.3.072.414a.762.762 0 00.193.28.75.75 0 00.281.155c.107.03.22.046.337.046a.997.997 0 00.317-.05.829.829 0 00.278-.155.739.739 0 00.2-.276c.05-.115.075-.252.075-.414v-.794zm.423.893c0 .19-.032.358-.098.51a1.06 1.06 0 01-.273.381 1.206 1.206 0 01-.414.237c-.158.053-.331.08-.518.08s-.36-.027-.518-.08a1.128 1.128 0 01-.681-.622 1.248 1.248 0 01-.098-.506v-.985a1.149 1.149 0 01.384-.884 1.28 1.28 0 01.415-.24c.158-.055.327-.083.504-.083.187 0 .36.028.519.083.159.057.295.137.41.24.115.103.205.23.27.378.066.148.098.317.098.506v.985zm2.6-1.703c-.317.032-.58.093-.79.181-.208.089-.37.169-.483.241v2.489H104v-3.36h.404l.056.498h.014a2.175 2.175 0 01.556-.354c.11-.05.226-.092.347-.126.12-.034.239-.053.356-.058v.49m4.984 2.777a2.187 2.187 0 01-.749.133c-.232 0-.447-.035-.647-.106a1.515 1.515 0 01-.518-.306 1.421 1.421 0 01-.345-.48 1.509 1.509 0 01-.125-.623v-1.657a1.43 1.43 0 01.475-1.09c.147-.133.323-.234.526-.305.205-.071.424-.108.66-.108.237 0 .458.032.664.094.205.062.392.157.558.287l-.236.364a1.344 1.344 0 00-.457-.232 1.845 1.845 0 00-.529-.08c-.153 0-.3.022-.442.066a1.13 1.13 0 00-.385.206.996.996 0 00-.273.364 1.275 1.275 0 00-.101.534v1.462c0 .21.034.387.099.537.066.148.153.27.26.366.108.094.232.165.372.212.14.046.286.07.435.07.105 0 .243-.018.415-.054.171-.035.348-.126.533-.271v-1.21h-.755v-.433h1.215v1.828a1.66 1.66 0 01-.65.432m3.693-1.439h-.952a2.15 2.15 0 00-.254.017.685.685 0 00-.254.08.538.538 0 00-.195.183.571.571 0 00-.079.32c0 .198.063.343.19.435.125.093.28.138.462.138.087 0 .178-.013.274-.04a2.582 2.582 0 00.564-.237c.089-.048.17-.095.244-.14v-.756zm-.013 1.173c-.283.172-.513.281-.69.328-.18.048-.331.071-.457.071-.304 0-.55-.084-.737-.253-.186-.168-.28-.408-.28-.718 0-.18.038-.332.114-.456a.983.983 0 01.284-.3c.113-.077.234-.132.364-.166.13-.034.252-.05.365-.05h1.05v-.295c0-.26-.068-.45-.205-.57-.137-.12-.34-.182-.61-.182-.134 0-.282.02-.443.058-.16.039-.324.122-.489.253l-.215-.338a1.7 1.7 0 01.59-.305c.198-.052.394-.078.59-.078.43 0 .738.098.925.296.187.198.28.481.28.85v2.22h-.365l-.058-.358-.013-.007zm2.482-3.001c.246 0 .44.05.583.152a.916.916 0 01.314.393c.15-.118.284-.214.403-.287a2.31 2.31 0 01.327-.167 1.235 1.235 0 01.47-.091c.341 0 .602.091.784.275.182.184.273.46.273.829v2.296h-.468v-2.188c0-.254-.05-.447-.149-.578-.098-.132-.271-.199-.518-.199-.149 0-.308.042-.477.126a3.677 3.677 0 00-.558.358 1.229 1.229 0 01.021.266v2.215h-.468v-2.201c0-.51-.208-.764-.623-.764-.145 0-.3.032-.464.096a3.05 3.05 0 00-.594.334v2.535h-.468v-3.367h.405l.063.43c.136-.095.257-.174.366-.236.108-.062.209-.108.3-.143a1.289 1.289 0 01.478-.084m6.185 1.303c0-.161-.024-.297-.07-.41a.756.756 0 00-.468-.432 1.019 1.019 0 00-.642.004.809.809 0 00-.28.16.8.8 0 00-.195.272.96.96 0 00-.073.392v.215h1.728v-.201zm-1.728.573v.262a.94.94 0 00.077.402.752.752 0 00.496.421 1.272 1.272 0 00.784-.034 1.21 1.21 0 00.418-.262l.275.303c-.156.158-.333.27-.53.334a1.944 1.944 0 01-1.142.023 1.139 1.139 0 01-.424-.225 1.103 1.103 0 01-.284-.381 1.262 1.262 0 01-.106-.533v-.904c0-.194.032-.37.097-.53a1.146 1.146 0 01.685-.662c.16-.06.336-.09.528-.09.191 0 .366.029.525.087.158.059.294.143.407.252.114.111.202.244.264.396.063.153.094.324.094.512v.629h-2.164zm4.331-1.387c-.318.032-.58.093-.79.181a3.48 3.48 0 00-.484.241v2.489h-.46v-3.36h.405l.055.498h.014a2.258 2.258 0 01.902-.48c.12-.034.24-.053.358-.058v.49m1.784 2.539c.096 0 .19-.01.287-.03a.775.775 0 00.26-.102.566.566 0 00.187-.184.524.524 0 00.071-.284.398.398 0 00-.143-.329 1.011 1.011 0 00-.402-.175 6.307 6.307 0 00-.51-.105 2.284 2.284 0 01-.493-.134.957.957 0 01-.372-.256c-.099-.11-.148-.264-.148-.46 0-.145.03-.276.09-.395a.908.908 0 01.245-.306c.104-.086.231-.151.378-.2.149-.046.309-.069.482-.069.245 0 .461.023.648.07.187.048.365.129.532.245-.035.054-.073.11-.112.166l-.113.164a1.751 1.751 0 00-.457-.194 1.872 1.872 0 00-.491-.061c-.232 0-.419.054-.56.161a.502.502 0 00-.211.418c0 .08.02.15.06.205a.485.485 0 00.167.141c.071.038.154.07.252.095.097.025.203.048.316.07.141.027.287.057.44.088.151.032.29.08.418.149.127.067.23.157.309.272.08.114.119.265.119.454a.836.836 0 01-.35.694 1.215 1.215 0 01-.404.194 1.924 1.924 0 01-.529.069c-.228 0-.45-.027-.669-.078a1.794 1.794 0 01-.648-.313l.238-.33c.169.13.343.221.523.272.18.052.376.078.59.078M44.756 16.71l-1.12 2.191-1.367 2.56h-1.735l-1.35-2.506-1.174-2.245h-.07v6.39h-2.407V11.2h2.215l2.16 4.196 1.458 2.936h.105l1.476-3.006L45.02 11.2h2.213v11.9h-2.406v-6.39h-.071m11.388-1.11c0-.398-.064-.732-.19-1.008a1.961 1.961 0 00-.498-.675 2.07 2.07 0 00-.698-.387 2.732 2.732 0 00-1.608 0 2.066 2.066 0 00-.705.387 1.976 1.976 0 00-.5.675c-.125.276-.188.61-.188 1.009v3.524c0 .4.063.736.189 1.018a1.9 1.9 0 00.5.683c.206.177.441.302.704.377a2.857 2.857 0 001.608 0 1.847 1.847 0 001.196-1.06c.126-.282.19-.618.19-1.018v-3.524zm2.356 3.947c0 .653-.12 1.227-.361 1.718-.24.492-.566.908-.979 1.246a4.119 4.119 0 01-1.45.76 5.904 5.904 0 01-1.76.254 5.9 5.9 0 01-1.76-.253 4.117 4.117 0 01-1.45-.76 3.698 3.698 0 01-.98-1.247c-.24-.491-.36-1.065-.36-1.718v-4.436c0-.644.127-1.211.378-1.7.253-.491.59-.903 1.013-1.228.423-.329.91-.572 1.46-.737a5.92 5.92 0 011.7-.246c.583 0 1.15.088 1.699.263.549.177 1.035.43 1.46.765.423.331.76.744 1.012 1.242.251.497.378 1.068.378 1.712v4.365zm8.74-.064c0-.46-.147-.83-.436-1.11-.29-.28-.692-.42-1.203-.42h-2.546v3.022h2.563c.535 0 .938-.133 1.212-.402.273-.27.41-.635.41-1.09zm-.14-4.813c0-.434-.132-.77-.393-1-.26-.23-.67-.346-1.23-.346h-2.422v2.606h2.457c.5 0 .89-.114 1.169-.343a1.13 1.13 0 00.419-.917zm2.667 4.895c0 .484-.076.938-.227 1.364a3.32 3.32 0 01-.663 1.12c-.29.32-.65.577-1.08.768-.43.19-.93.283-1.499.283h-5.631V11.2h5.405c.602 0 1.122.086 1.559.26.436.171.796.409 1.08.708.284.299.498.645.638 1.036.138.395.207.804.207 1.23 0 .44-.118.888-.356 1.349-.237.463-.613.82-1.124 1.074.29.141.54.312.75.527a3.25 3.25 0 01.836 1.447c.07.26.105.504.105.734zm4.838-.902h2.89l-.47-1.52-.94-3.145h-.069l-.923 3.09-.488 1.575zm3.535 1.986h-4.18l-.783 2.451h-2.544l4.216-11.9h2.438l4.18 11.9H78.87l-.73-2.451zm4.627 2.451V11.2h1.214v10.813h6.586V23.1h-7.8m11.473 0h-1.246v-4.509a476.903 476.903 0 00-1.856-3.695L89.267 11.2h1.372c.048.09.143.285.287.58.142.29.307.637.497 1.033l.616 1.28c.221.454.434.893.643 1.312.208.419.396.803.566 1.149.17.345.302.604.395.775l.317-.67c.152-.324.33-.692.53-1.106.202-.417.414-.853.635-1.315a526.492 526.492 0 011.15-2.392c.154-.318.26-.535.32-.646h1.338l-3.692 7.358V23.1m9.97-10.779V23.1h-1.253V12.321h-3.725V11.2h8.667v1.121h-3.689M109.2 23.1h1.3V11.2h-1.3zm7.89-11.9c1.325 0 2.443.335 3.36.999l-.652.965a3.942 3.942 0 00-1.254-.615 5.235 5.235 0 00-1.454-.211 3.93 3.93 0 00-1.156.176c-.373.118-.709.3-1.011.543a2.637 2.637 0 00-.722.957c-.18.393-.27.863-.27 1.412v3.858c0 .55.092 1.02.28 1.412.186.391.427.714.722.963a2.96 2.96 0 001.001.563c.374.123.747.184 1.12.184.505 0 .999-.069 1.48-.203a3.624 3.624 0 001.3-.658l.633.947c-.35.27-.82.509-1.41.72-.59.21-1.244.313-1.967.313a5.32 5.32 0 01-1.76-.278 4.179 4.179 0 01-1.4-.806 3.691 3.691 0 01-.93-1.263 3.95 3.95 0 01-.333-1.65v-4.364a3.739 3.739 0 011.28-2.876c.397-.35.865-.621 1.402-.805a5.177 5.177 0 011.74-.283M130 20.172c0 .525-.105.994-.313 1.407-.208.411-.5.76-.876 1.045a4.11 4.11 0 01-1.358.664 6.162 6.162 0 01-1.76.237 7.718 7.718 0 01-2.296-.332 7.703 7.703 0 01-2.064-1.014l.66-.907a8.686 8.686 0 001.77.831 6.04 6.04 0 001.948.323c.894 0 1.614-.196 2.163-.586.547-.387.822-.946.822-1.668 0-.43-.095-.78-.286-1.048a2.215 2.215 0 00-.742-.653 4.175 4.175 0 00-1.017-.393 19.251 19.251 0 00-1.119-.246 9.347 9.347 0 01-1.42-.349 4.605 4.605 0 01-1.223-.602 2.946 2.946 0 01-.868-.942c-.22-.38-.33-.847-.33-1.405 0-.49.09-.94.272-1.347a3 3 0 01.785-1.055 3.706 3.706 0 011.24-.69 5.119 5.119 0 011.635-.242c.678 0 1.345.06 2 .182s1.275.35 1.859.69l-.572 1.045a6.493 6.493 0 00-1.644-.609 7.721 7.721 0 00-1.697-.192c-.347 0-.676.04-.993.13a2.41 2.41 0 00-.84.412 2.003 2.003 0 00-.58.705 2.214 2.214 0 00-.215 1.005c0 .372.096.684.287.926.188.245.433.447.73.61.297.165.624.292.98.383.356.094.708.177 1.052.247.534.114 1.046.244 1.532.392.487.146.912.343 1.275.593.363.25.654.573.874.96.22.389.329.888.329 1.493"/><path fill="#535072" d="M1.3 9.5l13.5-7.225.367 4.444L1.3 9.5"/><path fill="#7A7397" d="M29.033 9.075l-14.3-7.225.38 4.573 13.92 2.652"/><path fill="#272643" d="M15.6 33.3l8.654-10.625 4.78 2.138L15.6 33.3"/><path fill="#27283E" d="M15.6 32.875l-8.58-10.2-6.153 1.809L15.6 32.875"/><path fill="#2D2D45" d="M29.033 9.075v15.3l-4.766-2.115 4.766-13.185"/><path fill="#202134" d="M1.306 9.925L1.3 24.8l6.067-1.808L1.306 9.925"/><path fill="#42416C" d="M29.033 9.126L24.4 22.25 15.167 6.525l13.866 2.6"/><path fill="#363257" d="M1.3 9.113l6.085 13.562 7.782-16.15L1.3 9.113"/><path fill="#484979" d="M15.827 33.3l8.44-10.625-16.9.376 8.46 10.249"/><path fill="#363356" d="M15.06 6.525l-7.693 16.15 16.9-.372L15.06 6.525"/><path fill="#FFFFFE" d="M24.188 22.9l.11.192.11-.312 3.79 1.83-11.02 7.067 7.01-8.777zm-17.095.208l.162.367.09-.19 7.068 8.535-12.424-7.188 5.104-1.524zm-.253-.573l-5.317 1.588.006-13.099 5.01 10.831.3.68zm7.729-16.361L3.19 8.332l11.172-5.89.291 3.573-.198-.038.113.197zm.89-.007l.083-.177-.194.037-.264-3.556 11.689 5.85-11.315-2.154zm9.16 16.019l3.977-11.313V24l-3.978-1.814zm-1.046.487l-7.82 9.79-7.818-9.442 15.638-.348zM13.227 7.06l1.23-.233-7.178 15.142-.171-.37L1.66 9.253 13.227 7.06zm15.267 2.222l-4.333 12.324L15.67 6.839l6.18 1.177 6.644 1.265zM15.027 7.077l8.67 14.974-15.914.354 7.244-15.328zM29.22 24.692l.247-.158-.247-.119V9.156l.047.009-.047-.023v-.045l.102-.29-.312-.06L14.928 1.7l-.02-.246-.23.12-.297-.148.022.294-13.29 7.008-.338.063.145.33-.034.017.038-.007.133.3-.152.033L.899 24.31l-.466.139.466.27v.239l.273-.082 14.56 8.424.032-.037.034.037 13.172-8.447.25.114v-.275z"/><path fill="#FFFFFE" d="M29.467 9.076a.43.43 0 01-.434.424.43.43 0 01-.433-.424.43.43 0 01.433-.426.43.43 0 01.434.426"/><path fill="#FFFFFE" d="M28.817 9.064c-.126 0-.228.1-.228.224 0 .123.102.223.228.223.125 0 .227-.1.227-.223a.226.226 0 00-.227-.224zm0 .861a.644.644 0 01-.65-.637c0-.352.291-.638.65-.638.358 0 .65.286.65.638a.644.644 0 01-.65.637z"/><path fill="#FFFFFE" d="M29.033 8.942a.135.135 0 00-.135.134c0 .073.06.132.135.132.075 0 .136-.06.136-.132a.135.135 0 00-.136-.134zm0 .983a.86.86 0 01-.866-.85.86.86 0 01.866-.85.86.86 0 01.867.85.86.86 0 01-.867.85z"/><path fill="#FFFFFE" d="M28.817 9.605a.32.32 0 01-.324-.317c0-.175.145-.318.324-.318.178 0 .324.143.324.318a.321.321 0 01-.324.317zm0-1.021a.712.712 0 00-.718.704c0 .388.322.704.718.704a.712.712 0 00.718-.704.712.712 0 00-.718-.704zm0 1.766a1.074 1.074 0 01-1.084-1.062c0-.586.486-1.063 1.084-1.063.597 0 1.083.477 1.083 1.063s-.486 1.062-1.083 1.062zM24.7 22.675a.429.429 0 01-.433.425.429.429 0 01-.434-.425.43.43 0 01.434-.425c.24 0 .433.19.433.425"/><path fill="#FFFFFE" d="M24.05 22.24c-.125 0-.228.1-.228.223 0 .122.103.223.228.223.126 0 .228-.1.228-.223a.226.226 0 00-.228-.224zm0 .86a.645.645 0 01-.65-.637c0-.352.292-.638.65-.638.359 0 .65.286.65.638a.644.644 0 01-.65.637z"/><path fill="#FFFFFE" d="M24.267 22.542a.135.135 0 00-.136.133c0 .073.06.133.136.133.075 0 .136-.06.136-.133a.135.135 0 00-.136-.133zm0 .983a.86.86 0 01-.867-.85c0-.47.389-.85.867-.85s.866.38.866.85a.86.86 0 01-.866.85z"/><path fill="#FFFFFE" d="M24.05 22.78a.321.321 0 01-.324-.318.32.32 0 01.324-.317.32.32 0 01.324.317.321.321 0 01-.324.318zm0-1.022a.712.712 0 00-.718.704c0 .389.322.705.718.705a.712.712 0 00.718-.705.712.712 0 00-.718-.704zm0 1.767a1.074 1.074 0 01-1.083-1.063c0-.585.486-1.062 1.083-1.062s1.083.477 1.083 1.063c0 .585-.486 1.062-1.083 1.062zm5.417 1.275a.43.43 0 01-.434.425.43.43 0 01-.433-.425c0-.235.194-.425.433-.425.24 0 .434.19.434.425"/><path fill="#FFFFFE" d="M28.817 24.364c-.126 0-.228.1-.228.223s.102.224.228.224c.125 0 .227-.1.227-.224a.226.226 0 00-.227-.223zm0 .861a.645.645 0 01-.65-.638c0-.351.291-.637.65-.637.358 0 .65.286.65.637a.645.645 0 01-.65.638z"/><path fill="#FFFFFE" d="M29.033 24.666a.135.135 0 00-.135.134c0 .074.06.134.135.134.075 0 .136-.06.136-.134a.135.135 0 00-.136-.134zm0 .984a.86.86 0 01-.866-.85.86.86 0 01.866-.85.86.86 0 01.867.85.86.86 0 01-.867.85z"/><path fill="#FFFFFE" d="M28.817 24.906a.321.321 0 01-.324-.319c0-.175.145-.318.324-.318.178 0 .324.143.324.319a.322.322 0 01-.324.318zm0-1.022a.712.712 0 00-.718.703c0 .388.322.704.718.704a.712.712 0 00.718-.704.712.712 0 00-.718-.703zm0 1.766a1.074 1.074 0 01-1.084-1.063c0-.585.486-1.062 1.084-1.062.597 0 1.083.477 1.083 1.063 0 .585-.486 1.062-1.083 1.062zm-12.784 7.225a.43.43 0 01-.433.425.43.43 0 01-.433-.425.43.43 0 01.433-.425c.24 0 .433.19.433.425"/><path fill="#FFFFFE" d="M15.817 32.44c-.126 0-.228.1-.228.222 0 .123.102.224.228.224.125 0 .227-.1.227-.224a.225.225 0 00-.227-.223zm0 .86a.645.645 0 01-.65-.638c0-.351.291-.637.65-.637.358 0 .65.286.65.637a.645.645 0 01-.65.638z"/><path fill="#FFFFFE" d="M15.6 32.742a.135.135 0 00-.136.133c0 .074.061.133.136.133.075 0 .136-.06.136-.133a.135.135 0 00-.136-.133zm0 .983a.86.86 0 01-.867-.85c0-.47.39-.85.867-.85.478 0 .867.38.867.85a.86.86 0 01-.867.85z"/><path fill="#FFFFFE" d="M15.817 32.98a.321.321 0 01-.325-.317c0-.176.146-.318.325-.318a.32.32 0 01.324.318.32.32 0 01-.324.317zm0-1.021a.712.712 0 00-.718.704c0 .388.322.703.718.703a.712.712 0 00.717-.703.712.712 0 00-.717-.704zm0 1.766a1.074 1.074 0 01-1.084-1.062c0-.586.486-1.063 1.084-1.063.597 0 1.083.477 1.083 1.063s-.486 1.062-1.083 1.062zM7.8 22.675a.43.43 0 01-.433.425.429.429 0 01-.434-.425.43.43 0 01.434-.425c.239 0 .433.19.433.425"/><path fill="#FFFFFE" d="M7.15 22.665c-.125 0-.227.1-.227.222 0 .123.102.223.227.223s.228-.1.228-.223a.225.225 0 00-.228-.222zm0 .86a.645.645 0 01-.65-.638c0-.351.292-.637.65-.637.358 0 .65.286.65.637a.645.645 0 01-.65.638z"/><path fill="#FFFFFE" d="M7.367 22.542a.135.135 0 00-.136.133c0 .074.06.133.136.133a.134.134 0 00.136-.133.135.135 0 00-.136-.133zm0 .983a.86.86 0 01-.867-.85.86.86 0 01.867-.85c.478 0 .866.381.866.85 0 .47-.388.85-.866.85z"/><path fill="#FFFFFE" d="M7.15 23.205a.322.322 0 01-.324-.318.32.32 0 01.324-.317.32.32 0 01.324.317.322.322 0 01-.324.318zm0-1.021a.712.712 0 00-.718.703c0 .388.322.704.718.704a.712.712 0 00.718-.704.712.712 0 00-.718-.703zm0 1.766a1.075 1.075 0 01-1.083-1.063c0-.586.486-1.062 1.083-1.062s1.083.476 1.083 1.062c0 .586-.486 1.063-1.083 1.063zM1.733 9.076A.429.429 0 011.3 9.5a.428.428 0 01-.433-.424.43.43 0 01.433-.426c.24 0 .433.19.433.426"/><path fill="#FFFFFE" d="M1.083 9.064c-.125 0-.227.1-.227.225 0 .122.102.222.227.222.126 0 .228-.1.228-.222a.226.226 0 00-.228-.225zm0 .861a.644.644 0 01-.65-.636c0-.353.292-.639.65-.639.359 0 .65.286.65.639 0 .35-.291.636-.65.636z"/><path fill="#FFFFFE" d="M1.3 8.941a.135.135 0 00-.136.135c0 .073.06.132.136.132a.134.134 0 00.136-.132.135.135 0 00-.136-.136zm0 .984a.86.86 0 01-.867-.85c0-.469.39-.85.867-.85a.86.86 0 01.867.85.86.86 0 01-.867.85z"/><path fill="#FFFFFE" d="M1.083 9.605a.321.321 0 01-.324-.317c0-.176.145-.319.324-.319.179 0 .324.143.324.32a.32.32 0 01-.324.316zm0-1.021a.712.712 0 00-.717.704c0 .388.322.704.717.704a.711.711 0 00.718-.704.712.712 0 00-.718-.704zm0 1.766A1.074 1.074 0 010 9.288c0-.586.486-1.063 1.083-1.063.598 0 1.084.477 1.084 1.063S1.68 10.35 1.083 10.35zm14.084-3.825a.43.43 0 01-.433.425.429.429 0 01-.434-.425.43.43 0 01.434-.425.43.43 0 01.433.425"/><path fill="#FFFFFE" d="M14.95 6.515c-.125 0-.228.1-.228.223 0 .122.103.223.228.223.126 0 .228-.1.228-.223a.225.225 0 00-.228-.223zm0 .86a.645.645 0 01-.65-.637c0-.352.292-.638.65-.638.358 0 .65.286.65.638a.644.644 0 01-.65.637z"/><path fill="#FFFFFE" d="M14.733 6.392a.135.135 0 00-.136.133c0 .073.061.133.136.133.075 0 .136-.06.136-.133a.135.135 0 00-.136-.133zm0 .983a.86.86 0 01-.866-.85c0-.47.388-.85.866-.85a.86.86 0 01.867.85.86.86 0 01-.867.85z"/><path fill="#FFFFFE" d="M14.95 7.054a.321.321 0 01-.324-.317.32.32 0 01.324-.317.32.32 0 01.324.317.32.32 0 01-.324.317zm0-1.02a.712.712 0 00-.718.703c0 .389.322.705.718.705a.712.712 0 00.718-.705.712.712 0 00-.718-.704zm0 1.766a1.074 1.074 0 01-1.083-1.063c0-.585.486-1.062 1.083-1.062s1.083.477 1.083 1.062c0 .586-.486 1.063-1.083 1.063zm.217-5.525a.429.429 0 01-.434.425.429.429 0 01-.433-.425.43.43 0 01.433-.425c.24 0 .434.19.434.425"/><path fill="#FFFFFE" d="M14.517 1.84c-.126 0-.228.1-.228.223 0 .122.102.223.228.223.125 0 .227-.1.227-.224a.226.226 0 00-.227-.223zm0 .86a.645.645 0 01-.65-.637c0-.352.291-.638.65-.638.358 0 .65.286.65.637a.645.645 0 01-.65.638z"/><g fill="#FFFFFE"><path d="M14.76 1.939c-.084 0-.153.06-.153.133 0 .074.069.134.152.134.084 0 .152-.06.152-.134 0-.073-.068-.133-.152-.133zm0 .986c-.534 0-.969-.383-.969-.853 0-.469.435-.85.968-.85.534 0 .968.381.968.85 0 .47-.434.853-.968.853z"/><path d="M14.76 2.38c-.193 0-.35-.139-.35-.308 0-.169.157-.306.35-.306.191 0 .347.137.347.306 0 .17-.156.307-.348.307zm0-.986c-.426 0-.772.304-.772.678 0 .375.346.68.771.68.426 0 .771-.305.771-.68 0-.374-.345-.678-.77-.678zm0 1.704c-.643 0-1.165-.46-1.165-1.026 0-.564.522-1.024 1.164-1.024.642 0 1.164.46 1.164 1.024 0 .566-.522 1.026-1.164 1.026z"/></g><path fill="#FFFFFE" d="M1.733 24.8a.429.429 0 01-.433.425.429.429 0 01-.433-.425c0-.235.194-.425.433-.425.24 0 .433.19.433.425"/><path fill="#FFFFFE" d="M1.084 24.365c-.126 0-.228.1-.228.222 0 .123.102.223.228.223.125 0 .227-.1.227-.223a.226.226 0 00-.227-.222zm0 .86a.645.645 0 01-.65-.638c0-.351.29-.637.65-.637.358 0 .65.286.65.637a.645.645 0 01-.65.638z"/><path fill="#FFFFFE" d="M1.3 24.667a.134.134 0 00-.136.133c0 .074.061.133.136.133.075 0 .136-.06.136-.133a.134.134 0 00-.136-.133zm0 .983a.86.86 0 01-.867-.85c0-.47.389-.85.867-.85a.86.86 0 01.867.85.86.86 0 01-.867.85z"/><path fill="#FFFFFE" d="M1.083 24.905a.321.321 0 01-.324-.318c0-.175.146-.317.324-.317a.32.32 0 01.324.317.321.321 0 01-.324.318zm0-1.021a.712.712 0 00-.718.703c0 .389.322.704.718.704a.712.712 0 00.718-.704.712.712 0 00-.718-.703zm0 1.766A1.075 1.075 0 010 24.587c0-.586.486-1.062 1.083-1.062.598 0 1.084.476 1.084 1.062 0 .586-.486 1.063-1.084 1.063zm6.597-2.763l8.194 9.819 8.192-10.18 4.54-12.813-13.487-2.535-13.33 2.508 5.892 13.201zm8.203 10.838l-8.779-10.54L.867 9.209l14.252-2.684.06.012 14.288 2.686-4.824 13.616-.034.042-8.726 10.844z"/><path fill="#FFFFFE" d="M7.754 22.524l8.135 9.613 8.134-9.967 4.515-12.567-13.41-2.486L1.892 9.572l5.861 12.952zm8.14 10.184L7.426 22.69 1.368 9.305l13.76-2.553.034.006 13.866 2.57L24.33 22.37l-8.437 10.339zM7.17 22.822l8.728 10.332 8.71-10.671L29.41 9.114 15.127 6.466.958 9.096 7.17 22.822zm8.733 10.903l-9.06-10.737-6.41-14.16L15.128 6.1l.097.019L29.9 8.839l-4.985 13.844-.035.042-8.977 11z"/><path fill="#FFFFFE" d="M17.467 14.175l-.05.104c-.228.477-.466.961-.71 1.451-.245.489-.489.975-.732 1.464l-.6 1.248-.18.351a33.45 33.45 0 01-.316-.632l-.474-.97c-.243-.486-.487-.97-.732-1.457-.247-.48-.49-.965-.73-1.457l-.05-.102h-.76v6.8h.828v-4.848l1.939 3.819h.612l.05-.102c.177-.36.355-.718.531-1.071l.017-.035c.182-.364.371-.739.571-1.128l.12-.245c.126-.257.254-.519.381-.785l.19-.391v4.786h.828v-6.8h-.733"/></g></svg>