<svg width="30" height="33" xmlns="http://www.w3.org/2000/svg"><g fill="none" fill-rule="evenodd"><path fill="#535072" d="M1.291 8.426l13.407-7.162.364 4.405L1.291 8.426"/><path fill="#7A7397" d="M28.833 8.004L14.632.843l.376 4.533 13.825 2.628"/><path fill="#272643" d="M15.492 32.017l8.595-10.532 4.746 2.119-13.341 8.413"/><path fill="#27283E" d="M15.492 31.596L6.971 21.485l-6.11 1.793 14.631 8.318"/><path fill="#2D2D45" d="M28.833 8.004V23.17l-4.734-2.096 4.734-13.07"/><path fill="#202134" d="M1.297 8.847l-.006 14.744L7.316 21.8 1.297 8.847"/><path fill="#42416C" d="M28.833 8.054l-4.602 13.01-9.169-15.587 13.771 2.577"/><path fill="#363257" d="M1.291 8.042l6.043 13.443 7.728-16.008L1.291 8.042"/><path fill="#484979" d="M15.718 32.017l8.381-10.532-16.783.373 8.402 10.159"/><path fill="#363356" d="M14.956 5.477l-7.64 16.008 16.783-.369-9.143-15.639"/><path fill="#FFFFFE" d="M24.02 21.708l.111.19.11-.31 3.763 1.815-10.944 7.005 6.96-8.7zm-16.976.206l.16.365.09-.19 7.02 8.46-12.338-7.124 5.068-1.51zm-.251-.568l-5.28 1.575.005-12.985 4.977 10.737.298.673zm7.675-16.218L3.17 7.268 14.264 1.43l.29 3.54-.198-.037.112.195zm.884-.006l.083-.176-.193.037-.262-3.525 11.608 5.8-11.236-2.136zM24.448 21l3.95-11.214v13.012L24.449 21zm-1.037.483l-7.766 9.704-7.765-9.359 15.53-.345zM13.135 6.006l1.222-.231-7.128 15.01-.17-.367L1.649 8.18l11.486-2.175zm15.163 2.202l-4.304 12.216-8.432-14.636L21.7 6.954l6.598 1.254zM14.924 6.024l8.61 14.842-15.805.351 7.195-15.193zm14.095 17.46l.244-.156-.244-.118V8.085l.046.008-.046-.023v-.044l.101-.287-.31-.059L14.825.693l-.02-.244-.228.12-.295-.148.021.292L1.104 7.659l-.335.063.144.326-.033.018.038-.007.131.297-.15.033-.006 14.717-.463.137.463.267v.238l.27-.081 14.46 8.35.032-.036.034.036 13.081-8.373.249.113v-.273z"/><path fill="#FFFFFE" d="M29.263 8.005c0 .232-.192.42-.43.42a.426.426 0 01-.43-.42c0-.233.193-.422.43-.422.238 0 .43.189.43.422"/><path fill="#FFFFFE" d="M28.618 7.993c-.125 0-.226.1-.226.223 0 .121.101.22.226.22s.226-.099.226-.22a.225.225 0 00-.226-.223zm0 .854a.64.64 0 01-.646-.631.64.64 0 01.646-.633.64.64 0 01.645.633.64.64 0 01-.645.63z"/><path fill="#FFFFFE" d="M28.833 7.872a.134.134 0 00-.135.133c0 .072.06.131.135.131a.133.133 0 00.135-.131.134.134 0 00-.135-.133zm0 .975a.853.853 0 01-.86-.842c0-.466.386-.843.86-.843s.86.377.86.843a.853.853 0 01-.86.842z"/><path fill="#FFFFFE" d="M28.618 8.53a.318.318 0 01-.322-.315.32.32 0 01.322-.315.32.32 0 01.322.315.319.319 0 01-.322.315zm0-1.013a.707.707 0 00-.713.698c0 .385.32.698.713.698a.706.706 0 00.713-.698.707.707 0 00-.713-.698zm0 1.751a1.066 1.066 0 01-1.076-1.053c0-.58.483-1.053 1.076-1.053.593 0 1.076.472 1.076 1.053 0 .58-.483 1.053-1.076 1.053zM24.53 21.485a.425.425 0 01-.43.421.426.426 0 01-.431-.42c0-.233.193-.422.43-.422.238 0 .43.189.43.421"/><path fill="#FFFFFE" d="M23.885 21.053c-.125 0-.227.1-.227.222 0 .121.102.22.227.22a.223.223 0 00.225-.22.224.224 0 00-.225-.222zm0 .853a.64.64 0 01-.646-.631.64.64 0 01.646-.632.64.64 0 01.645.632.64.64 0 01-.645.631z"/><path fill="#FFFFFE" d="M24.1 21.353a.134.134 0 00-.136.132c0 .073.06.132.135.132.075 0 .135-.06.135-.132a.134.134 0 00-.135-.132zm0 .975a.853.853 0 01-.861-.843c0-.465.386-.842.86-.842.475 0 .861.377.861.842a.853.853 0 01-.86.843z"/><path fill="#FFFFFE" d="M23.884 21.59a.319.319 0 01-.322-.316.32.32 0 01.322-.315.32.32 0 01.322.315.319.319 0 01-.322.315zm0-1.014a.706.706 0 00-.713.698c0 .385.32.698.713.698a.706.706 0 00.713-.698.706.706 0 00-.713-.698zm0 1.752a1.066 1.066 0 01-1.076-1.054c0-.58.483-1.053 1.076-1.053.593 0 1.076.473 1.076 1.053 0 .581-.483 1.054-1.076 1.054zm5.379 1.263a.426.426 0 01-.43.422.426.426 0 01-.43-.422c0-.233.193-.42.43-.42.238 0 .43.187.43.42"/><path fill="#FFFFFE" d="M28.618 23.16a.223.223 0 00-.226.22c0 .123.101.222.226.222s.226-.1.226-.221a.224.224 0 00-.226-.221zm0 .853a.64.64 0 01-.646-.632.64.64 0 01.646-.632.64.64 0 01.645.632.64.64 0 01-.645.632z"/><path fill="#FFFFFE" d="M28.833 23.46a.134.134 0 00-.135.132c0 .072.06.132.135.132.075 0 .135-.06.135-.132a.134.134 0 00-.135-.133zm0 .974a.853.853 0 01-.86-.842c0-.465.386-.843.86-.843s.86.378.86.843a.853.853 0 01-.86.842z"/><path fill="#FFFFFE" d="M28.618 23.696a.319.319 0 01-.322-.315.32.32 0 01.322-.315c.177 0 .322.14.322.315a.32.32 0 01-.322.315zm0-1.013a.706.706 0 00-.713.698c0 .384.32.698.713.698a.706.706 0 00.713-.698.706.706 0 00-.713-.698zm0 1.751a1.066 1.066 0 01-1.076-1.053c0-.58.483-1.053 1.076-1.053.593 0 1.076.472 1.076 1.053 0 .58-.483 1.053-1.076 1.053zm-12.695 7.162a.426.426 0 01-.43.421.426.426 0 01-.43-.421c0-.233.192-.422.43-.422.237 0 .43.19.43.422"/><path fill="#FFFFFE" d="M15.708 31.164a.224.224 0 00-.226.22c0 .123.101.222.226.222a.224.224 0 00.226-.221.224.224 0 00-.226-.221zm0 .853a.64.64 0 01-.646-.632.64.64 0 01.646-.632.64.64 0 01.645.632.64.64 0 01-.645.632z"/><path fill="#FFFFFE" d="M15.493 31.464a.134.134 0 00-.136.132c0 .073.061.132.136.132a.133.133 0 00.135-.132.134.134 0 00-.135-.132zm0 .974a.853.853 0 01-.861-.842c0-.465.386-.843.86-.843.475 0 .861.378.861.843a.852.852 0 01-.86.842z"/><path fill="#FFFFFE" d="M15.708 31.7a.319.319 0 01-.322-.315.32.32 0 01.322-.315.32.32 0 01.322.315.318.318 0 01-.322.315zm0-1.013a.707.707 0 00-.713.698c0 .385.32.698.713.698a.706.706 0 00.712-.698.706.706 0 00-.712-.698zm0 1.751a1.066 1.066 0 01-1.076-1.053c0-.58.482-1.053 1.076-1.053.593 0 1.075.473 1.075 1.053 0 .581-.482 1.053-1.075 1.053zM7.746 21.485a.426.426 0 01-.43.421.426.426 0 01-.43-.421c0-.233.192-.421.43-.421.237 0 .43.188.43.42"/><path fill="#FFFFFE" d="M7.101 21.475a.223.223 0 00-.226.22c0 .122.101.222.226.222.124 0 .226-.1.226-.222a.223.223 0 00-.226-.22zm0 .853a.64.64 0 01-.646-.633.64.64 0 01.646-.631.64.64 0 01.645.631.64.64 0 01-.645.633z"/><path fill="#FFFFFE" d="M7.316 21.353a.134.134 0 00-.135.132c0 .073.06.132.135.132a.133.133 0 00.135-.132.134.134 0 00-.135-.132zm0 .975a.853.853 0 01-.86-.843c0-.465.385-.842.86-.842s.86.377.86.842a.852.852 0 01-.86.843z"/><path fill="#FFFFFE" d="M7.1 22.01a.32.32 0 01-.321-.315c0-.173.144-.314.322-.314.177 0 .322.14.322.314a.32.32 0 01-.322.316zm0-1.012a.706.706 0 00-.712.697c0 .385.32.699.713.699a.706.706 0 00.712-.699.706.706 0 00-.712-.697zm0 1.75a1.066 1.066 0 01-1.075-1.053c0-.58.483-1.052 1.076-1.052.593 0 1.076.472 1.076 1.052 0 .581-.483 1.054-1.076 1.054zM1.721 8.006c0 .232-.193.42-.43.42a.425.425 0 01-.43-.42c0-.234.192-.423.43-.423.237 0 .43.19.43.423"/><path fill="#FFFFFE" d="M1.076 7.993c-.125 0-.226.1-.226.223 0 .122.101.22.226.22a.223.223 0 00.226-.22.225.225 0 00-.226-.223zm0 .854a.639.639 0 01-.646-.63c0-.35.29-.634.646-.634a.64.64 0 01.645.633c0 .348-.29.63-.645.63z"/><path fill="#FFFFFE" d="M1.291 7.871a.134.134 0 00-.135.134c0 .073.06.131.135.131a.133.133 0 00.135-.131.134.134 0 00-.135-.134zm0 .976a.853.853 0 01-.86-.842c0-.466.386-.843.86-.843s.86.377.86.843a.853.853 0 01-.86.842z"/><path fill="#FFFFFE" d="M1.076 8.53a.318.318 0 01-.322-.314.32.32 0 01.322-.317.32.32 0 01.322.317.318.318 0 01-.322.314zm0-1.013a.707.707 0 00-.713.699c0 .384.32.697.713.697a.706.706 0 00.713-.697.707.707 0 00-.713-.699zm0 1.751A1.066 1.066 0 010 8.216c0-.582.483-1.054 1.076-1.054.593 0 1.076.472 1.076 1.054 0 .58-.483 1.052-1.076 1.052zm13.986-3.791c0 .233-.193.42-.43.42a.426.426 0 01-.43-.42c0-.233.192-.422.43-.422.237 0 .43.189.43.422"/><path fill="#FFFFFE" d="M14.847 5.466c-.125 0-.226.1-.226.222 0 .121.101.22.226.22s.226-.099.226-.22a.224.224 0 00-.226-.222zm0 .853a.64.64 0 01-.646-.631.64.64 0 01.646-.633.64.64 0 01.645.633.64.64 0 01-.645.631z"/><path fill="#FFFFFE" d="M14.632 5.344a.134.134 0 00-.135.133c0 .072.06.131.135.131a.133.133 0 00.135-.131.134.134 0 00-.135-.133zm0 .975a.853.853 0 01-.861-.842c0-.466.386-.843.86-.843.475 0 .861.377.861.843a.853.853 0 01-.86.842z"/><path fill="#FFFFFE" d="M14.847 6.001a.319.319 0 01-.322-.314.32.32 0 01.322-.315.32.32 0 01.322.315.318.318 0 01-.322.314zm0-1.012a.707.707 0 00-.713.698c0 .385.32.698.713.698a.706.706 0 00.713-.698.706.706 0 00-.713-.698zm0 1.751a1.066 1.066 0 01-1.076-1.053c0-.58.483-1.053 1.076-1.053.593 0 1.076.472 1.076 1.053S15.44 6.74 14.847 6.74zm.215-5.476a.425.425 0 01-.43.421.425.425 0 01-.43-.421c0-.232.192-.421.43-.421.237 0 .43.189.43.42"/><path fill="#FFFFFE" d="M14.417.832c-.125 0-.226.1-.226.221 0 .122.101.222.226.222.124 0 .226-.1.226-.222a.224.224 0 00-.226-.221zm0 .853a.64.64 0 01-.646-.632.64.64 0 01.646-.632.64.64 0 01.645.632.64.64 0 01-.645.632z"/><g fill="#FFFFFE"><path d="M14.657.93c-.083 0-.151.06-.151.133 0 .073.068.133.15.133.084 0 .152-.06.152-.133 0-.073-.068-.133-.151-.133zm0 .978c-.53 0-.961-.38-.961-.845 0-.465.431-.844.96-.844.53 0 .962.379.962.844 0 .465-.431.845-.961.845z"/><path d="M14.657 1.367c-.191 0-.346-.136-.346-.304 0-.168.155-.304.346-.304.19 0 .345.136.345.304 0 .168-.155.304-.345.304zm0-.976c-.423-.001-.767.301-.767.672 0 .371.343.673.766.673.422 0 .766-.302.766-.673 0-.37-.344-.672-.766-.672zm0 1.688c-.638.001-1.157-.456-1.157-1.016S14.02.048 14.657.048s1.156.455 1.156 1.015c0 .56-.519 1.016-1.156 1.016z"/></g><path fill="#FFFFFE" d="M1.721 23.591a.425.425 0 01-.43.422.426.426 0 01-.43-.422c0-.232.192-.42.43-.42s.43.188.43.42"/><path fill="#FFFFFE" d="M1.076 23.16a.223.223 0 00-.226.22c0 .123.101.222.226.222.124 0 .226-.1.226-.221a.224.224 0 00-.226-.221zm0 .853a.64.64 0 01-.646-.632.64.64 0 01.646-.632.64.64 0 01.645.632.64.64 0 01-.645.632z"/><path fill="#FFFFFE" d="M1.29 23.46a.133.133 0 00-.134.131c0 .074.06.132.135.132a.134.134 0 00.135-.132.133.133 0 00-.135-.131zm0 .974a.852.852 0 01-.86-.843c0-.465.386-.842.86-.842.475 0 .862.377.862.842a.853.853 0 01-.861.843z"/><path fill="#FFFFFE" d="M1.076 23.696a.319.319 0 01-.322-.315c0-.174.144-.315.322-.315a.32.32 0 01.322.315.319.319 0 01-.322.315zm0-1.013a.706.706 0 00-.713.698c0 .384.32.698.713.698a.706.706 0 00.713-.698.706.706 0 00-.713-.698zm0 1.751A1.066 1.066 0 010 23.381c0-.581.483-1.053 1.076-1.053.593 0 1.076.472 1.076 1.053 0 .58-.483 1.053-1.076 1.053zm6.552-2.739l8.136 9.733L23.9 21.337l4.508-12.7-13.393-2.514L1.777 8.61l5.85 13.085zm8.145 10.743L7.055 21.99.861 8.137l14.154-2.66.06.011 14.188 2.663-4.79 13.497-.034.041-8.666 10.75z"/><path fill="#FFFFFE" d="M7.7 21.335l8.08 9.529 8.077-9.88L28.34 8.529 15.023 6.063 1.88 8.497 7.7 21.335zm8.084 10.095L7.375 21.5 1.358 8.233l13.665-2.53.034.006 13.77 2.548-4.664 12.926-8.379 10.248zm-8.663-9.8l8.667 10.242 8.65-10.578 4.77-13.25-14.186-2.626L.952 8.025 7.12 21.631zm8.672 10.808L6.795 21.796.43 7.76l14.594-2.705.096.019 14.574 2.697-4.95 13.722-.035.042-8.916 10.903z"/><path fill="#FFFFFE" d="M17.347 13.06l-.05.102c-.227.474-.463.953-.705 1.439-.244.485-.486.966-.727 1.45l-.597 1.238-.178.349a33.133 33.133 0 01-.314-.627l-.47-.962-.727-1.444a88.113 88.113 0 01-.726-1.444l-.05-.101h-.753v6.74h.821v-4.806l1.926 3.786h.608l.05-.101c.176-.358.353-.712.527-1.062l.017-.035c.181-.36.368-.732.567-1.118l.119-.242c.125-.255.252-.514.379-.779l.188-.387V19.8h.822v-6.74h-.727"/></g></svg>