<svg width="72" height="72" fill="none" xmlns="http://www.w3.org/2000/svg"><mask id="a" fill="#fff"><path fill-rule="evenodd" clip-rule="evenodd" d="M68.906 47.311s7.116 12.686-11.546 12.637c-7.586-.024-14.826-1.751-20.964-3.928-10.606-3.734-17.907-8.806-17.907-8.806l.185.073c-.098-.06-.16-.11-.173-.122 4.245 1.679 8.156 3.053 11.77 4.172v-2.542c-9.852-3.272-17.314-7.978-22.375-11.931l.01-.017c.008-.015.014-.026.014-.044a64.743 64.743 0 01-5.433-4.743C.83 30.43 0 29.396 0 29.396l2.723.523c-3.485-7.637 4.11-10.849 4.444-10.99l.01-.005v-2.663L36 0l28.822 16.431v24.787C69.376 44.222 72 48.491 72 48.491l-3.094-1.18zM44.428 60.63l-.037.024c.012 0 .024 0 .024.013L36 65.42 7.19 49.063V39.236c.73.583 1.733 1.313 3.094 2.14V47.226l19.974 11.396v-4.05c7.759 4.693 13.698 5.957 14.143 6.051l.027.006zm12.338-6.957l8.056-4.536s3.131 3.83-1.819 5.582c-3.304 1.168-10.84 1.788-21.26-.413V29.262h12.436l4.592-10.058H13.217l4.591 10.058h12.475v19.326c-3.713-1.982-16.25-9.036-21.793-16.504-4.233-5.716-1.411-7.48-1.288-7.553 0 0 .644 2.92 3.082 5.413V18.037L36 3.515 61.716 18.17v29.19L50.74 53.563c.594.207 3.589.413 6.027.11z"/></mask><path fill-rule="evenodd" clip-rule="evenodd" d="M68.906 47.311s7.116 12.686-11.546 12.637c-7.586-.024-14.826-1.751-20.964-3.928-10.606-3.734-17.907-8.806-17.907-8.806l.185.073c-.098-.06-.16-.11-.173-.122 4.245 1.679 8.156 3.053 11.77 4.172v-2.542c-9.852-3.272-17.314-7.978-22.375-11.931l.01-.017c.008-.015.014-.026.014-.044a64.743 64.743 0 01-5.433-4.743C.83 30.43 0 29.396 0 29.396l2.723.523c-3.485-7.637 4.11-10.849 4.444-10.99l.01-.005v-2.663L36 0l28.822 16.431v24.787C69.376 44.222 72 48.491 72 48.491l-3.094-1.18zM44.428 60.63l-.037.024c.012 0 .024 0 .024.013L36 65.42 7.19 49.063V39.236c.73.583 1.733 1.313 3.094 2.14V47.226l19.974 11.396v-4.05c7.759 4.693 13.698 5.957 14.143 6.051l.027.006zm12.338-6.957l8.056-4.536s3.131 3.83-1.819 5.582c-3.304 1.168-10.84 1.788-21.26-.413V29.262h12.436l4.592-10.058H13.217l4.591 10.058h12.475v19.326c-3.713-1.982-16.25-9.036-21.793-16.504-4.233-5.716-1.411-7.48-1.288-7.553 0 0 .644 2.92 3.082 5.413V18.037L36 3.515 61.716 18.17v29.19L50.74 53.563c.594.207 3.589.413 6.027.11z" fill="#EFBA52"/><path d="M57.36 59.948l-.003 1 .003-1zm11.546-12.637l.356-.934-2.578-.983 1.35 2.407.872-.49zm-32.51 8.709l.334-.943h-.002l-.332.943zm-17.907-8.806l.366-.93-.937 1.751.57-.82zm.185.073l-.365.93.889-1.782-.524.852zm-.173-.122l.368-.93L17.8 47.88l.701-.714zm11.77 4.172l-.297.955 1.296.402v-1.357h-1zm0-2.542h1v-.721l-.686-.228-.315.95zM7.895 36.864l-.892-.453-.373.734.649.507.615-.788zm.01-.017l.861.506-.862-.507zm.014-.044h1v-.487l-.383-.3-.617.787zM2.487 32.06l.701-.713-.7.713zM0 29.396l.189-.982-2.67-.513 1.7 2.121.781-.626zm2.723.523l-.19.982 1.904.366-.805-1.763-.91.415zm4.444-10.99l.39.921.004-.002-.394-.919zm.01-.005l.395.92.606-.26v-.66h-1zm0-2.663l-.49-.87-.51.286v.584h1zM36 0l.495-.869-.492-.28-.494.278L36 0zm28.822 16.431h1v-.58l-.505-.289-.495.87zm0 24.787h-1v.538l.45.297.55-.835zM72 48.491l-.356.934 2.748 1.049-1.54-2.506-.852.523zM44.39 60.653l-.548-.836-2.802 1.836h3.35v-1zm.038-.024l.548.837 1.739-1.14-1.976-.647-.311.95zm-.013.037l.492.87.508-.287v-.583h-1zM36 65.42l-.494.87.493.28.493-.28-.492-.87zM7.19 49.063h-1v.582l.506.287.494-.87zm0-9.827l.625-.781-1.625-1.3v2.08h1zm3.094 2.14h1v-.562l-.48-.292-.52.854zm0 5.85h-1v.581l.504.288.496-.869zm19.974 11.396l-.496.869 1.496.853v-1.722h-1zm0-4.05l.517-.855-1.517-.918v1.773h1zM44.4 60.623l-.208.978.208-.978zm20.421-11.487l.775-.633-.533-.651-.732.412.49.872zm-8.056 4.536l.124.993.195-.025.172-.096-.491-.872zm6.237 1.046l.333.943-.333-.943zm-21.26-.413h-1v.81l.792.168.207-.978zm0-25.043v-1h-1v1h1zm12.436 0v1h.643l.267-.584-.91-.416zm4.592-10.058l.91.416.645-1.416h-1.555v1zm-45.554 0v-1H11.66l.646 1.416.91-.416zm4.591 10.058l-.91.416.267.584h.643v-1zm12.475 0h1v-1h-1v1zm0 19.326l-.472.883 1.472.785v-1.668h-1zM8.49 32.084l-.804.595v.001l.804-.596zm-1.288-7.553l.977-.215-.297-1.346-1.187.7.507.861zm3.082 5.413l-.715.699 1.715 1.754v-2.453h-1zm0-11.907l-.492-.871-.508.287v.584h1zM36 3.515l.495-.869-.493-.28-.494.278.492.87zM61.716 18.17h1v-.58l-.505-.288-.495.869zm0 29.19l.492.87.508-.286v-.584h-1zM50.74 53.563l-.492-.87-1.925 1.087 2.088.727.33-.944zm6.618 7.385c4.76.012 8.021-.783 10.197-2.098 2.22-1.34 3.239-3.18 3.562-5.03.316-1.804-.036-3.563-.436-4.829a13.764 13.764 0 00-.808-1.993 6.912 6.912 0 00-.065-.123l-.02-.036a.647.647 0 00-.005-.01l-.002-.004-.001-.002-.873.488c-.872.49-.872.49-.873.489 0-.001 0-.001 0 0l.002.002.01.019c.01.019.026.048.046.089.042.08.102.203.175.361.144.318.334.775.507 1.323.351 1.112.611 2.52.373 3.882-.23 1.315-.931 2.638-2.626 3.662-1.738 1.05-4.585 1.822-9.157 1.81l-.006 2zm-21.295-3.986c6.209 2.202 13.563 3.961 21.295 3.986l.006-2c-7.44-.024-14.565-1.719-20.633-3.87l-.668 1.884zm-17.573-9.748l-.57.822.002.001.005.004a2.006 2.006 0 01.086.058l.259.174c.227.15.56.367.993.639a75.797 75.797 0 003.719 2.18 88.203 88.203 0 0013.08 5.87l.665-1.886a86.203 86.203 0 01-12.78-5.735 73.867 73.867 0 01-3.62-2.123 47.359 47.359 0 01-1.193-.774c-.027-.017-.046-.03-.059-.04l-.014-.009-.002-.002-.571.821zm.551-.858l-.185-.073-.732 1.862.186.073.731-1.862zM17.8 47.88c.096.094.237.19.351.26l1.047-1.704a.9.9 0 01-.056-.037l-.004-.003.004.003a.583.583 0 01.03.026l.013.011.017.017L17.8 47.88zm12.766 2.503c-3.587-1.111-7.474-2.477-11.697-4.146l-.735 1.86c4.266 1.686 8.2 3.07 11.84 4.196l.592-1.91zm-1.296-1.587v2.542h2v-2.542h-2zM7.28 37.652c5.133 4.008 12.695 8.778 22.675 12.092l.63-1.898c-9.721-3.229-17.084-7.873-22.074-11.77L7.28 37.652zm-.237-1.312c-.002.004-.02.033-.039.07l1.783.907a.78.78 0 01-.016.03l-.004.006-1.724-1.013zm-.123.463a.94.94 0 01.066-.345c.03-.078.07-.139.057-.118l1.724 1.013c.005-.008.153-.232.153-.55h-2zm-5.133-4.03a65.783 65.783 0 005.517 4.817l1.233-1.574a63.776 63.776 0 01-5.349-4.67l-1.401 1.427zM0 29.396l-.78.626.002.002.002.003.01.012a8.542 8.542 0 00.158.19c.11.13.272.317.485.556a44.23 44.23 0 001.91 1.988l1.401-1.426c-.813-.8-1.42-1.45-1.822-1.898a24.066 24.066 0 01-.555-.641l-.025-.03-.006-.007-.78.625zm2.911-.459L.19 28.414l-.378 1.964 2.723.523.377-1.964zm3.866-10.929c-.2.085-2.365.997-4.027 2.958-.842.994-1.574 2.278-1.837 3.87-.264 1.6-.042 3.434.9 5.498l1.82-.83c-.801-1.754-.937-3.186-.746-4.341.191-1.162.726-2.122 1.389-2.903 1.347-1.59 3.148-2.354 3.28-2.41l-.779-1.842zm.007-.003l-.011.005.788 1.838.01-.004-.787-1.839zm-.606-1.744v2.663h2v-2.663h-2zM35.508-.871L6.687 15.39l.983 1.742L36.491.871 35.51-.871zm29.81 16.433L36.494-.867l-.99 1.737L64.327 17.3l.99-1.738zm.504 25.656V16.431h-2v24.787h2zM72 48.491l.852-.524-.002-.002a.263.263 0 00-.002-.004l-.007-.012-.027-.043a19.34 19.34 0 00-.479-.707 27.393 27.393 0 00-1.454-1.865c-1.264-1.49-3.128-3.38-5.508-4.95l-1.101 1.669c2.174 1.434 3.899 3.18 5.085 4.575.59.697 1.043 1.3 1.346 1.728a17.276 17.276 0 01.445.66v-.001l.852-.524zm-3.45-.245l3.094 1.18.712-1.87-3.094-1.179-.712 1.869zM44.939 61.49l.037-.025-1.096-1.672-.038.024 1.097 1.673zm.476-.824a1.01 1.01 0 00-1.004-1.012h-.02v2c.01 0-.021 0-.057-.003a.974.974 0 01-.705-.372.989.989 0 01-.214-.613h2zm-8.923 5.626l8.415-4.756-.984-1.741-8.415 4.755.984 1.742zM6.696 49.932l28.81 16.359.988-1.74-28.81-16.358-.988 1.74zM6.19 39.321v9.742h2V39.32h-2zm0-.085v.085h2v-.085h-2zm4.613 1.286a28.196 28.196 0 01-2.988-2.067l-1.25 1.562c.763.61 1.8 1.364 3.2 2.214l1.038-1.71zm.48.927v-.073h-2v.073h2zm0 5.777V41.45h-2v5.777h2zm19.47 10.528L10.78 46.358l-.99 1.737L29.761 59.49l.991-1.737zm-1.495-3.182v4.05h2v-4.05h-2zm15.351 5.073c-.375-.08-6.2-1.312-13.834-5.928l-1.035 1.71c7.884 4.769 13.938 6.065 14.453 6.174l.416-1.956zm.13.034c-.038-.013-.07-.02-.07-.02l-.02-.005a2.695 2.695 0 00-.04-.009l-.416 1.956.015.004-.006-.002-.017-.004a.936.936 0 01-.038-.01l-.03-.01.622-1.9zm19.593-11.415l-8.057 4.537.982 1.743 8.056-4.537-.981-1.743zm-.995 7.397c1.37-.485 2.313-1.16 2.871-2 .567-.852.66-1.755.551-2.529-.105-.756-.402-1.412-.652-1.858a6.341 6.341 0 00-.491-.747l-.012-.015-.004-.005-.002-.002v-.001c-.001 0-.001-.001-.776.632-.774.633-.774.632-.775.632v-.002h-.002l.002.001.014.019.068.092c.06.086.144.213.232.372.183.326.359.738.418 1.158.056.404.002.787-.236 1.145-.247.371-.769.832-1.873 1.223l.667 1.885zm-21.802-.378c10.513 2.221 18.255 1.631 21.801.378l-.666-1.886c-3.063 1.083-10.393 1.733-20.721-.449l-.413 1.957zm-.793-26.02v25.042h2V29.262h-2zm13.438-1H41.741v2H54.18v-2zm3.681-9.474L53.27 28.847l1.82.83 4.59-10.057-1.819-.83zm-44.644 1.415H58.77v-2H13.217v2zm5.5 8.643l-4.59-10.058-1.82.83 4.591 10.059 1.82-.83zm11.566-.585H17.808v2h12.475v-2zm1 20.326V29.262h-2v19.326h2zM7.687 32.68c2.874 3.871 7.507 7.578 11.82 10.538a113.493 113.493 0 0010.304 6.253l.943-1.765a111.459 111.459 0 01-10.115-6.137c-4.27-2.93-8.676-6.484-11.347-10.08L7.687 32.68zm-.992-9.01c-.203.12-1.211.792-1.47 2.359-.254 1.546.269 3.69 2.46 6.65l1.608-1.19c-2.04-2.756-2.223-4.352-2.094-5.135.126-.762.59-1.008.511-.961L6.695 23.67zm4.304 5.574a11.577 11.577 0 01-2.257-3.35c-.215-.48-.359-.887-.447-1.168a7.169 7.169 0 01-.117-.412v.001c.001 0 .001.001-.976.216l-.976.216v.003l.001.004a2.237 2.237 0 00.011.045l.03.118c.026.099.065.238.12.41a13.577 13.577 0 003.182 5.316l1.429-1.398zM9.284 18.037v11.907h2V18.037h-2zM35.508 2.644L9.792 17.166l.984 1.741L36.492 4.386l-.984-1.742zm26.703 14.658L36.495 2.646l-.99 1.738L61.22 19.039l.99-1.737zm.505 30.058V18.17h-2v29.19h2zm-11.485 7.073l10.977-6.202-.984-1.742-10.977 6.203.984 1.741zm5.411-1.753c-1.15.144-2.453.168-3.546.13a19.849 19.849 0 01-1.4-.094 7.616 7.616 0 01-.457-.062c-.128-.022-.175-.037-.171-.036l-.658 1.89c.27.093.675.153 1.07.196.432.047.963.084 1.546.105 1.162.04 2.576.016 3.864-.144l-.248-1.985z" fill="#EFBA52" mask="url(#a)"/></svg>